:SAMPLES-PER-SECOND 30
:FULLY-SPECIFIED
:DEGREES
81
root  -4.59429 40.2713 18.5513 179.147 20.0054 177.115
RightUpLeg  0.0568283 -5.25971 -3.80082
RightLeg  7.6047 -10.4786 -3.20171
RightFoot  -4.64956 -0.352984 5.49084
RightToes  -1.74624e-010 0 -3.6325e-017
Spine  -8.01257 -0.810148 -7.68167
Spine1  23.2525 -1.44193 3.04055
HEad  -3.81411 19.1442 -2.47274
LeftShoulder1  2.35845 -5.39688 -20.0523
LeftArm  12.4332 10.5439 -53.7066
LeftForeArm  27.6075 -77.4608 -97.5076
LeftHand  0.335864 7.4998 19.0644
RightShoulder  1.27914 1.69524 18.1181
RightArm  9.03387 -7.92568 59.4753
RightForeArm  -0.402045 22.5177 5.28498
RightHand  -0.339171 1.46273 -5.89464
LeftUpLeg  -1.02875 0.287043 -1.74836
LeftLeg  1.29293 15.1273 -1.09517
LeftFoot  -1.17382 -0.0807214 0.992038
LeftToes  -5.82109e-011 1.10366e-010 -8.03124e-011
82
root  -4.5732 40.2766 18.5783 179.11 20.2264 177.126
RightUpLeg  0.0154982 -5.36222 -3.69015
RightLeg  7.64026 -11.9424 -3.19186
RightFoot  -4.53528 -0.351426 5.38562
RightToes  -1.74624e-010 0 -3.6325e-017
Spine  -7.89307 -0.75404 -7.43003
Spine1  23.2238 -1.3479 2.90796
HEad  -3.77042 19.2492 -2.56586
LeftShoulder1  2.33154 -5.30228 -20.0294
LeftArm  12.5178 10.5325 -53.6809
LeftForeArm  26.0813 -77.5012 -95.9414
LeftHand  0.346792 7.56613 19.0692
RightShoulder  1.27341 1.67691 18.0927
RightArm  9.2305 -7.9546 59.5092
RightForeArm  -0.699532 22.8262 5.19129
RightHand  -0.326501 1.44703 -5.69147
LeftUpLeg  -0.965717 0.341936 -1.66102
LeftLeg  1.2221 15.2122 -1.13283
LeftFoot  -1.10755 -0.0730198 0.896173
LeftToes  -5.82109e-011 1.10366e-010 -8.03124e-011
83
root  -4.54817 40.2776 18.6088 179 20.7495 177.093
RightUpLeg  -0.0269804 -5.37738 -3.60241
RightLeg  7.68341 -12.6476 -3.21067
RightFoot  -4.47321 -0.341524 5.17895
RightToes  -1.74624e-010 0 -3.6325e-017
Spine  -7.78639 -0.632762 -7.08159
Spine1  23.2316 -1.12705 2.61916
HEad  -3.75113 19.4555 -2.69562
LeftShoulder1  2.30251 -5.21009 -19.9725
LeftArm  12.5749 10.5908 -53.6424
LeftForeArm  24.7192 -77.5337 -94.4006
LeftHand  0.328975 7.43353 19.2663
RightShoulder  1.29042 1.75081 18.0679
RightArm  9.35397 -7.96311 59.5386
RightForeArm  -0.693832 23.1219 5.11729
RightHand  -0.299161 1.49133 -5.19655
LeftUpLeg  -0.82749 0.433708 -1.58534
LeftLeg  1.16222 15.5958 -1.18804
LeftFoot  -1.0884 -0.0637607 0.782698
LeftToes  -5.82109e-011 1.10366e-010 -8.03124e-011
84
root  -4.52199 40.2727 18.6422 178.846 21.5124 177.03
RightUpLeg  -0.0708022 -5.32406 -3.56149
RightLeg  7.71975 -12.4007 -3.22204
RightFoot  -4.49659 -0.331728 5.03067
RightToes  -1.74624e-010 0 -3.6325e-017
Spine  -7.74218 -0.452742 -6.69603
Spine1  23.3065 -0.836442 2.31736
HEad  -3.74311 19.6467 -2.82868
LeftShoulder1  2.3084 -5.21791 -20.0193
LeftArm  12.6248 10.7314 -53.4569
LeftForeArm  23.5285 -77.5465 -93.4423
LeftHand  0.339685 7.49235 19.3183
RightShoulder  1.29867 1.81649 17.9053
RightArm  9.32961 -7.87119 59.6949
RightForeArm  -0.425846 23.2487 5.0868
RightHand  -0.271928 1.51808 -4.72069
LeftUpLeg  -0.689032 0.572309 -1.50765
LeftLeg  1.20553 16.1955 -1.24989
LeftFoot  -1.16237 -0.0539528 0.68493
LeftToes  -5.82109e-011 1.10366e-010 -8.03124e-011
85
root  -4.49936 40.2641 18.6749 178.69 22.353 176.955
RightUpLeg  -0.096506 -5.31286 -3.61468
RightLeg  7.7102 -11.4363 -3.12358
RightFoot  -4.60586 -0.329472 5.06184
RightToes  -1.74624e-010 0 -3.6325e-017
Spine  -7.78794 -0.278865 -6.35449
Spine1  23.4762 -0.585456 2.10866
HEad  -3.79952 19.8476 -3.03045
LeftShoulder1  2.34007 -5.29158 -20.1679
LeftArm  12.6253 10.9296 -53.2668
LeftForeArm  21.975 -77.5536 -92.7294
LeftHand  0.427608 8.0659 19.0314
RightShoulder  1.28095 1.7945 17.6515
RightArm  9.31647 -7.67306 59.9064
RightForeArm  -0.267271 23.3395 5.07085
RightHand  -0.264716 1.50215 -4.60851
LeftUpLeg  -0.615089 0.699824 -1.45116
LeftLeg  1.39388 16.8898 -1.25422
LeftFoot  -1.28953 -0.0437445 0.586618
LeftToes  -5.82109e-011 1.10366e-010 -8.03124e-011
86
root  -4.47898 40.2568 18.7109 178.582 23.1807 176.886
RightUpLeg  -0.134279 -5.42562 -3.75734
RightLeg  7.63563 -10.1754 -2.8501
RightFoot  -4.73934 -0.329279 5.14498
RightToes  -1.74624e-010 0 -3.6325e-017
Spine  -7.84983 -0.18427 -6.05819
Spine1  23.6462 -0.424458 1.91622
HEad  -3.99919 20.2995 -3.33117
LeftShoulder1  2.35146 -5.31612 -20.2271
LeftArm  12.5318 11.1894 -53.3075
LeftForeArm  20.2573 -77.5607 -91.679
LeftHand  0.517088 8.65173 18.8118
RightShoulder  1.25996 1.73224 17.5285
RightArm  9.34392 -7.46134 59.9729
RightForeArm  -0.27537 23.6566 5.08545
RightHand  -0.275638 1.51725 -4.78338
LeftUpLeg  -0.618429 0.781599 -1.41123
LeftLeg  1.62795 17.6217 -1.19711
LeftFoot  -1.3955 -0.0310306 0.453442
LeftToes  -5.82109e-011 1.10366e-010 -8.03124e-011
87
root  -4.45411 40.2507 18.7586 178.535 24.045 176.821
RightUpLeg  -0.237983 -5.64973 -3.93688
RightLeg  7.52694 -8.84436 -2.44081
RightFoot  -4.85721 -0.321794 5.09247
RightToes  -1.74624e-010 0 -3.6325e-017
Spine  -7.82036 -0.165632 -5.76136
Spine1  23.6829 -0.311445 1.64538
HEad  -4.32194 21.086 -3.645
LeftShoulder1  2.32786 -5.25783 -20.1282
LeftArm  12.4418 11.5053 -53.4904
LeftForeArm  19.2467 -77.5648 -90.4606
LeftHand  0.509416 8.55094 19.1196
RightShoulder  1.25704 1.70898 17.5979
RightArm  9.19931 -7.31394 59.8658
RightForeArm  -0.125859 24.232 5.18915
RightHand  -0.280815 1.56608 -4.84059
LeftUpLeg  -0.68894 0.858368 -1.3452
LeftLeg  1.83758 18.379 -1.1478
LeftFoot  -1.49142 -0.0160499 0.290823
LeftToes  -5.82109e-011 1.10366e-010 -8.03124e-011
88
root  -4.42517 40.2405 18.8233 178.503 25.019 176.759
RightUpLeg  -0.422005 -5.91395 -4.09886
RightLeg  7.46256 -7.46099 -1.99227
RightFoot  -4.96625 -0.308924 4.93692
RightToes  -1.74624e-010 0 -3.6325e-017
Spine  -7.63477 -0.166664 -5.43085
Spine1  23.5712 -0.205272 1.33895
HEad  -4.68275 21.9665 -3.92275
LeftShoulder1  2.29697 -5.16225 -20.0602
LeftArm  12.5246 11.7553 -53.5056
LeftForeArm  18.9123 -77.5641 -89.4702
LeftHand  0.425726 7.93006 19.8795
RightShoulder  1.26347 1.72877 17.6596
RightArm  8.99332 -7.1893 59.7759
RightForeArm  0.107997 24.8591 5.31862
RightHand  -0.274856 1.58435 -4.73228
LeftUpLeg  -0.873302 0.981385 -1.22458
LeftLeg  2.2279 19.1594 -1.08225
LeftFoot  -1.66339 0.000500316 0.112588
LeftToes  -5.82109e-011 1.10366e-010 -8.03124e-011
89
root  -4.40523 40.2226 18.9068 178.45 26.078 176.733
RightUpLeg  -0.688837 -6.14071 -4.19053
RightLeg  7.54443 -6.0885 -1.58642
RightFoot  -5.05942 -0.299677 4.82936
RightToes  -1.74624e-010 0 -3.6325e-017
Spine  -7.24104 -0.170811 -5.03128
Spine1  23.3661 -0.129832 1.07454
HEad  -5.07191 22.754 -4.27803
LeftShoulder1  2.27575 -5.05584 -20.1473
LeftArm  12.7892 11.7685 -53.3282
LeftForeArm  18.1028 -77.5591 -88.3783
LeftHand  0.365126 7.46876 20.7832
RightShoulder  1.26896 1.76487 17.5502
RightArm  8.92833 -7.00854 59.8427
RightForeArm  0.162414 25.3509 5.42665
RightHand  -0.300758 1.67373 -5.10523
LeftUpLeg  -1.26116 1.14958 -1.04782
LeftLeg  3.10304 19.9583 -0.861605
LeftFoot  -1.95482 0.0202096 -0.102792
LeftToes  -5.82109e-011 1.10366e-010 -8.03124e-011
90
root  -4.4064 40.1957 19.0115 178.383 27.1485 176.794
RightUpLeg  -1.06078 -6.26576 -4.15096
RightLeg  7.85014 -4.86356 -1.27375
RightFoot  -5.12812 -0.293034 4.75692
RightToes  -1.74624e-010 0 -3.6325e-017
Spine  -6.58222 -0.198518 -4.50515
Spine1  23.0754 -0.107207 0.835169
HEad  -5.54992 23.5586 -4.83351
LeftShoulder1  2.25789 -4.96533 -20.225
LeftArm  13.0445 11.5292 -53.276
LeftForeArm  16.3367 -77.5434 -86.7596
LeftHand  0.357289 7.32484 21.7541
RightShoulder  1.27189 1.82292 17.3253
RightArm  8.92609 -6.8178 60.0372
RightForeArm  0.0544931 25.7274 5.51783
RightHand  -0.415981 2.06415 -6.64626
LeftUpLeg  -1.85361 1.39292 -0.795746
LeftLeg  4.46701 20.6828 -0.441991
LeftFoot  -2.35331 0.0418928 -0.351424
LeftToes  -5.82109e-011 1.10366e-010 -8.03124e-011
91
root  -4.42908 40.1558 19.1375 178.286 28.2191 176.971
RightUpLeg  -1.50349 -6.27028 -3.95172
RightLeg  8.38418 -3.79541 -1.06317
RightFoot  -5.21789 -0.279367 4.58145
RightToes  -1.74624e-010 0 -3.6325e-017
Spine  -5.653 -0.236283 -3.77295
Spine1  22.736 -0.0823717 0.535692
HEad  -6.12218 24.4738 -5.50829
LeftShoulder1  2.24663 -4.96042 -20.0995
LeftArm  13.1192 11.1663 -53.5273
LeftForeArm  14.7206 -77.5203 -85.2317
LeftHand  0.349072 7.19202 22.7128
RightShoulder  1.27926 1.89848 17.1083
RightArm  8.67399 -6.72841 60.2706
RightForeArm  0.144219 26.1391 5.60749
RightHand  -0.642364 2.79912 -9.30028
LeftUpLeg  -2.5498 2.0427 -0.442165
LeftLeg  6.16256 20.9351 0.138454
LeftFoot  -2.87284 0.0613119 -0.601564
LeftToes  -5.82109e-011 1.10366e-010 -8.03124e-011
92
root  -4.47244 40.0975 19.2794 178.093 29.3016 177.265
RightUpLeg  -1.90508 -6.22376 -3.63968
RightLeg  9.10244 -2.75928 -0.890716
RightFoot  -5.38715 -0.259129 4.3066
RightToes  -1.74624e-010 0 -3.6325e-017
Spine  -4.51728 -0.261683 -2.76022
Spine1  22.5053 0.00374108 0.128433
HEad  -6.75713 25.3312 -6.13523
LeftShoulder1  2.25079 -5.05514 -19.837
LeftArm  13.0283 10.7171 -53.9065
LeftForeArm  14.5113 -77.5152 -84.8368
LeftHand  0.322436 7.01254 23.2449
RightShoulder  1.28147 1.94107 16.9495
RightArm  8.10131 -6.7096 60.4589
RightForeArm  0.636402 26.6843 5.70782
RightHand  -0.964474 3.72438 -12.4924
LeftUpLeg  -3.34331 3.70082 -0.0357102
LeftLeg  8.34399 20.0906 1.02374
LeftFoot  -3.50921 0.0844066 -0.971803
LeftToes  -5.82109e-011 1.10366e-010 -8.03124e-011
93
root  -4.54129 40.0251 19.4286 177.792 30.3347 177.633
RightUpLeg  -2.20273 -6.24098 -3.33141
RightLeg  9.92378 -1.69825 -0.646618
RightFoot  -5.60109 -0.242731 4.0951
RightToes  -1.74624e-010 0 -3.6325e-017
Spine  -3.27911 -0.318011 -1.57257
Spine1  22.508 0.0845174 -0.29608
HEad  -7.49132 25.9877 -6.7573
LeftShoulder1  2.25791 -5.13833 -19.6536
LeftArm  12.8931 10.0862 -54.2027
LeftForeArm  15.5438 -77.5315 -85.5395
LeftHand  0.310813 6.96874 23.0794
RightShoulder  1.2726 1.9247 16.8489
RightArm  7.48921 -6.61615 60.5084
RightForeArm  1.28043 27.3185 5.82204
RightHand  -1.37011 4.7579 -15.8524
LeftUpLeg  -4.36309 6.47182 0.28043
LeftLeg  11.1838 18.0376 2.36691
LeftFoot  -4.05729 0.131596 -1.7344
LeftToes  -5.82109e-011 1.10366e-010 -8.03124e-011
94
root  -4.63465 39.9494 19.5742 177.499 31.2529 178.027
RightUpLeg  -2.47083 -6.35589 -3.0885
RightLeg  10.743 -0.669184 -0.296682
RightFoot  -5.77013 -0.235993 4.0391
RightToes  -1.74624e-010 0 -3.6325e-017
Spine  -2.08159 -0.455936 -0.487613
Spine1  22.6876 0.0158824 -0.489697
HEad  -8.33462 26.6039 -7.57231
LeftShoulder1  2.25062 -5.11474 -19.6398
LeftArm  12.7489 9.2878 -54.4527
LeftForeArm  16.6016 -77.5464 -86.2355
LeftHand  0.311279 7.00771 22.6106
RightShoulder  1.26318 1.90143 16.7689
RightArm  6.91434 -6.42161 60.3606
RightForeArm  1.85135 27.9228 5.93445
RightHand  -1.82084 5.80847 -19.0175
LeftUpLeg  -5.73184 9.54777 0.44678
LeftLeg  14.4848 15.444 3.98068
LeftFoot  -4.24447 0.212407 -3.00543
LeftToes  -5.82109e-011 1.10366e-010 -8.03124e-011
